<svg width="136" height="55" viewBox="0 0 136 55" fill="none" xmlns="http://www.w3.org/2000/svg">
  <path fill-rule="evenodd" clip-rule="evenodd" d="M2.19951 0L0 3.83408H9.38334V27.5H13.8585V3.83408H23.2031L21.0036 0H2.19951Z" transform="translate(0 11.1719)" fill="white"/>
  <path fill-rule="evenodd" clip-rule="evenodd" d="M4.43983 13.9687C4.43983 15.2625 4.6475 16.517 5.06283 17.7323C5.47816 18.9488 6.0683 20.0213 6.83456 20.9524C7.60082 21.8835 8.52874 22.6286 9.61964 23.1838C10.7105 23.7404 11.9302 24.018 13.2801 24.018C14.6825 24.018 15.9219 23.7273 16.9997 23.1445C18.0761 22.5631 18.9909 21.7931 19.7453 20.8358C20.4971 19.8799 21.0688 18.8061 21.4592 17.6157C21.8482 16.4267 22.0428 15.2101 22.0428 13.9687C22.0428 12.65 21.8351 11.3889 21.4198 10.1855C21.0044 8.98333 20.413 7.92262 19.6467 7.00333C18.8818 6.08536 17.9604 5.3481 16.8827 4.79286C15.8049 4.23631 14.6036 3.95738 13.2801 3.95738C11.879 3.95738 10.6317 4.2494 9.5421 4.83083C8.45119 5.41357 7.52984 6.16917 6.77673 7.10024C6.02361 8.03131 5.44662 9.09988 5.04312 10.302C4.64093 11.5055 4.43983 12.7273 4.43983 13.9687ZM13.2406 27.9374C11.2678 27.9374 9.46981 27.5432 7.84791 26.7536C6.22471 25.9652 4.82888 24.9176 3.66175 23.6107C2.4933 22.3051 1.59035 20.811 0.95421 19.1282C0.31807 17.4481 0 15.7287 0 13.9687C0 12.1327 0.337785 10.3727 1.01335 8.69262C1.68761 7.01119 2.61553 5.52357 3.79712 4.22976C4.97871 2.93726 6.38111 1.90798 8.00301 1.14452C9.62621 0.382381 11.3966 0 13.3182 0C15.291 0 17.0903 0.408571 18.7122 1.2231C20.3354 2.03762 21.7247 3.10488 22.88 4.42357C24.0353 5.74226 24.9304 7.23643 25.5665 8.90476C26.2026 10.5731 26.5207 12.2755 26.5207 14.0067C26.5207 15.8452 26.1895 17.6026 25.5271 19.284C24.866 20.9668 23.9367 22.4465 22.7433 23.7273C21.5486 25.008 20.1396 26.0294 18.5177 26.7929C16.8958 27.555 15.1359 27.9374 13.2406 27.9374Z" transform="translate(23.2249 11.4007)" fill="white"/>
  <path fill-rule="evenodd" clip-rule="evenodd" d="M4.36229 14.1232H11.9947C12.6176 14.1232 13.1828 13.987 13.6888 13.716C14.1949 13.4436 14.6299 13.069 14.994 12.5911C15.3567 12.1118 15.6433 11.5618 15.8509 10.9411C16.0573 10.3204 16.1624 9.66036 16.1624 8.96238C16.1624 8.26441 16.0389 7.6044 15.7918 6.98369C15.5447 6.36298 15.22 5.81952 14.8192 5.35464C14.4157 4.88845 13.9478 4.52048 13.4168 4.2481C12.8845 3.97571 12.3324 3.84083 11.7607 3.84083H4.36229V14.1232ZM0 27.5485V0H12.0341C13.2801 0 14.4288 0.259286 15.4803 0.776548C16.5317 1.29381 17.4334 1.97214 18.1865 2.81286C18.9396 3.65357 19.5311 4.61083 19.9595 5.68333C20.3867 6.75714 20.6009 7.8506 20.6009 8.96238C20.6009 9.89476 20.4708 10.7865 20.2119 11.6404C19.9517 12.4942 19.5889 13.2825 19.121 14.0067C18.6544 14.7308 18.0827 15.3581 17.4084 15.8885C16.7328 16.4188 15.9929 16.8143 15.1885 17.071L21.6918 27.5485H16.746L10.7487 17.964H4.36229V27.5485H0Z" transform="translate(52.3154 11.5953)" fill="white"/>
  <path fill-rule="evenodd" clip-rule="evenodd" d="M0 4.21667L0.984439 4.01369C1.10142 4.55321 1.55486 4.82298 2.34347 4.82298C2.70228 4.82298 2.9796 4.75357 3.17281 4.61607C3.36602 4.47726 3.46328 4.30571 3.46328 4.10143C3.46328 3.95214 3.41859 3.81464 3.33185 3.68762C3.24379 3.5619 3.05584 3.46238 2.76668 3.39167L1.69287 3.11929C1.32485 3.02631 1.05278 2.92155 0.876664 2.80238C0.701857 2.68452 0.559908 2.5169 0.454761 2.30214C0.349614 2.08607 0.29704 1.8556 0.29704 1.61202C0.29704 1.12488 0.483676 0.734643 0.855634 0.44C1.23022 0.146667 1.70733 0 2.28958 0C2.77194 0 3.20436 0.102143 3.58551 0.306429C3.96404 0.510714 4.2072 0.801429 4.31103 1.17595L3.34762 1.40774C3.1991 0.996548 2.85343 0.789643 2.30929 0.789643C1.99385 0.789643 1.75333 0.85381 1.58772 0.980833C1.4208 1.10786 1.338 1.27024 1.338 1.46798C1.338 1.77964 1.59824 1.99702 2.12003 2.12143L3.07555 2.35321C3.65517 2.49464 4.04422 2.70286 4.24137 2.97786C4.43852 3.25417 4.53841 3.55798 4.53841 3.88929C4.53841 4.42488 4.32943 4.84524 3.9141 5.15298C3.49745 5.4594 2.95858 5.61262 2.29746 5.61262C1.74018 5.61262 1.25256 5.5 0.83329 5.27476C0.414017 5.04821 0.136691 4.69595 0 4.21667Z" transform="translate(2.94831 42.7497)" fill="white"/>
  <path fill-rule="evenodd" clip-rule="evenodd" d="M2.37632 4.82429C2.74171 4.82429 3.05058 4.67762 3.30293 4.3856C3.55528 4.09226 3.68146 3.56191 3.68146 2.79321C3.68146 2.16857 3.57763 1.6775 3.36865 1.32393C3.15967 0.967739 2.83634 0.789643 2.39735 0.789643C1.52857 0.789643 1.09484 1.46798 1.09484 2.82071C1.09484 3.4781 1.20525 3.97571 1.42737 4.31488C1.64818 4.65405 1.96493 4.82429 2.37632 4.82429ZM2.36844 5.61393C1.62189 5.61393 1.03964 5.34286 0.624311 4.7994C0.207665 4.25726 0 3.58679 0 2.78929C0 1.99702 0.220809 1.3331 0.663741 0.800119C1.10536 0.267143 1.68892 0 2.41313 0C3.14258 0 3.72089 0.267143 4.14411 0.800119C4.56864 1.3331 4.78156 2.00095 4.78156 2.80107C4.78156 3.64179 4.56075 4.32143 4.12045 4.83738C3.68015 5.35595 3.09527 5.61393 2.36844 5.61393Z" transform="translate(12.2747 42.7489)" fill="white"/>
  <path fill-rule="evenodd" clip-rule="evenodd" d="M1.04096 5.44631H0V0H3.55266V0.842024H1.04096V2.33095H3.01772V3.1481H1.04096V5.44631Z" transform="translate(22.2161 42.8328)" fill="white"/>
  <path fill-rule="evenodd" clip-rule="evenodd" d="M2.58136 5.44631H1.4944V0.842024H0V0H4.07708V0.842024H2.58136V5.44631Z" transform="translate(30.0969 42.8328)" fill="white"/>
  <path fill-rule="evenodd" clip-rule="evenodd" d="M7.28012 0L5.77652 5.44631H4.71453L3.59472 1.44048L2.57742 5.44631H1.53515L0 0H1.07513L2.16209 3.96917L3.17413 0H4.20062L5.32044 3.96917L6.38637 0H7.28012Z" transform="translate(38.7481 42.8332)" fill="white"/>
  <path fill-rule="evenodd" clip-rule="evenodd" d="M3.19516 3.36286L2.37501 0.93369L1.55618 3.36286H3.19516ZM4.99843 5.445H3.91541L3.46722 4.14857H1.30514L0.864835 5.445H0L1.86505 0H3.11367L4.99843 5.445Z" transform="translate(50.0844 42.8336)" fill="white"/>
  <path fill-rule="evenodd" clip-rule="evenodd" d="M1.01335 2.42131H2.2738C2.63919 2.42131 2.90994 2.34667 3.08869 2.19869C3.26744 2.04941 3.35682 1.84512 3.35682 1.58321C3.35682 1.34488 3.26876 1.15107 3.09395 1.0031C2.91783 0.855119 2.67205 0.781786 2.35529 0.781786H1.01335V2.42131ZM4.382 5.44631H3.31213L2.4381 3.20833H1.01335V5.44631H0V0H2.4381C3.1163 0 3.61443 0.147976 3.93381 0.443929C4.25188 0.74119 4.41092 1.12488 4.41092 1.59631C4.41092 2.2956 4.07313 2.77619 3.39756 3.0394L4.382 5.44631Z" transform="translate(59.9744 42.8333)" fill="white"/>
  <path fill-rule="evenodd" clip-rule="evenodd" d="M3.65255 5.44631H0V0H3.61574V0.809286H1.01335V2.28643H3.10447V3.07607H1.01335V4.60036H3.65255V5.44631Z" transform="translate(69.6104 42.8328)" fill="white"/>
  <path fill-rule="evenodd" clip-rule="evenodd" d="M5.61354 5.59429H0L5.61354 0H45.3026L50.9161 5.59429H45.3026H5.61354Z" transform="translate(82.2489 1.07931)" fill="#248E91"/>
  <path fill-rule="evenodd" clip-rule="evenodd" d="M48.3676 0H47.9195H8.23039H7.7822L7.46413 0.315595L1.84927 5.90988L0 7.75238H2.61553H8.23039H47.9195H53.533H56.1485L54.2993 5.90988L48.6844 0.315595L48.3676 0ZM47.9195 1.07905L53.533 6.67333H47.9195H8.23039H2.61554L8.23039 1.07905H47.9195Z" transform="translate(79.6322)" fill="white"/>
  <path fill-rule="evenodd" clip-rule="evenodd" d="M5.61485 5.59429V33.4282L0 39.1862V5.59429V0H5.61485H15.5434H21.1569L15.5434 5.59429H5.61485Z" transform="translate(111.94 13.154)" fill="#248E91"/>
  <path fill-rule="evenodd" clip-rule="evenodd" d="M24.8568 0H22.2412H16.6264H6.69918H1.08433H0V1.07905V6.67333V40.2652V42.9249L1.8611 41.0169L7.47596 35.2602L7.7822 34.946V34.5086V7.75238H16.6264H17.0759L17.3926 7.43679L23.0075 1.8425L24.8568 0ZM22.2412 1.07905L16.6264 6.67333H6.69919V34.5086L1.08434 40.2652V6.67333V1.07905H6.69919H16.6264H22.2412Z" transform="translate(110.856 12.0747)" fill="white"/>
  <path fill-rule="evenodd" clip-rule="evenodd" d="M21.1569 5.59429V0H15.5434H5.61485H0L5.61485 5.59429H15.5434V33.4282L21.1569 39.1862V5.59429Z" transform="translate(82.1112 13.154)" fill="#248E91"/>
  <path fill-rule="evenodd" clip-rule="evenodd" d="M24.8568 0H23.7724H18.1589H8.23039H2.61553H0L1.84927 1.8425L7.46413 7.43679L7.78088 7.75238H8.23039H17.0746V34.5086V34.946L17.3821 35.2602L22.9957 41.0169L24.8568 42.9249V40.2652V6.67333V1.07905V0ZM23.7724 1.07905V6.67333V40.2652L18.1589 34.5086V6.67333H8.23039L2.61554 1.07905H8.23039H18.1589H23.7724Z" transform="translate(79.4952 12.0747)" fill="white"/>
</svg>
